<svg xmlns="http://www.w3.org/2000/svg" id="logos" version="1.1" viewBox="0 0 1048.82 425.2"><defs id="defs1"><style id="style1">.cls-1,.cls-2{fill:#0a0080;stroke-width:0}.cls-2{fill:#fff}</style></defs><path id="path1" d="M191.355 104.588C87.678 104.588 3.65 158.351 3.65 224.676S87.69 349.96 191.355 349.96c103.663 0 187.704-58.972 187.704-125.283s-84.041-120.088-187.704-120.088" style="stroke-width:0;fill:#00bcff"/><path id="path2" d="M130.278 187.55c-.093.187-1.931 2.079-.732 3.61 2.904 3.704 11.869 5.835 20.94 3.797 5.395-1.212 12.322-6.714 19.022-12.029 7.26-5.768 14.467-11.549 21.713-13.84 7.673-2.438 12.589-1.399 15.839-.413 3.557 1.066 7.753 3.41 14.44 8.419 12.588 9.458 63.18 53.63 71.932 61.263 7.034-3.184 40.59-16.731 83.11-26.11-3.704-22.671-17.331-44.291-38.258-61.262-29.16 12.242-67.164 19.582-102.011 2.57-.174-.066-19.036-8.99-37.632-8.551-27.64.64-39.616 12.601-52.284 25.27l-16.052 17.303z" class="cls-2"/><path id="path3" d="M291.341 243.165c-.6-.532-59.504-52.07-72.852-62.101-7.726-5.795-12.015-7.274-16.531-7.846-2.345-.307-5.595.133-7.86.759-6.207 1.692-14.32 7.113-21.526 12.828-7.46 5.94-14.493 11.536-21.034 13.001-8.338 1.865-18.529-.333-23.178-3.477-1.878-1.265-3.21-2.73-3.85-4.21-1.718-3.982 1.452-7.166 1.972-7.699l16.251-17.583c1.892-1.878 3.797-3.77 5.742-5.635-5.249.68-10.098 2.025-14.813 3.33-5.888 1.652-11.563 3.224-17.29 3.224-2.398 0-15.213-2.105-17.65-2.757-14.72-4.023-31.385-7.953-50.674-16.958-23.111 17.197-38.164 38.324-42.626 62.022 3.317.88 12.015 2.864 14.266 3.357 52.298 11.63 68.59 23.605 71.547 26.109 3.197-3.557 7.82-5.808 12.961-5.808 5.795 0 11.003 2.917 14.173 7.406 2.998-2.37 7.127-4.396 12.469-4.382 2.424 0 4.942.453 7.486 1.305 5.901 2.025 8.952 5.955 10.524 9.511a17.3 17.3 0 0 1 7.273-1.545c2.824 0 5.754.64 8.698 1.918 9.645 4.143 11.137 13.614 10.27 20.754.693-.08 1.386-.106 2.079-.106 11.43 0 20.727 9.298 20.727 20.74 0 3.544-.906 6.874-2.478 9.791 3.117 1.745 11.043 5.702 18.01 4.822 5.555-.706 7.673-2.597 8.419-3.676.52-.733 1.066-1.599.56-2.211l-14.76-16.385s-2.424-2.305-1.625-3.184c.826-.906 2.331.4 3.397 1.279 7.513 6.274 16.677 15.732 16.677 15.732.16.106.76 1.305 4.157 1.905 2.917.52 8.085.226 11.669-2.718a19 19 0 0 0 2.57-2.624c-.066.053-.12.107-.173.133 3.784-4.835-.426-9.71-.426-9.71l-17.224-19.343s-2.464-2.277-1.625-3.197c.746-.799 2.331.4 3.41 1.306 5.448 4.556 13.161 12.295 20.541 19.528 1.452 1.053 7.94 5.062 16.531-.572 5.222-3.424 6.261-7.633 6.115-10.79-.36-4.196-3.637-7.194-3.637-7.194l-23.525-23.658s-2.49-2.118-1.612-3.197c.72-.905 2.332.4 3.397 1.28 7.487 6.273 27.788 24.883 27.788 24.883.293.2 7.3 5.195 15.971-.32 3.104-1.985 5.076-4.969 5.249-8.445.293-6.022-3.943-9.592-3.943-9.592z" class="cls-2"/><path id="path4" d="M177.208 273.15c-3.65-.04-7.646 2.132-8.166 1.812-.293-.186.227-1.651.56-2.504.36-.84 5.155-15.292-6.554-20.314-8.965-3.85-14.454.48-16.332 2.437-.493.507-.72.467-.772-.173-.187-2.61-1.346-9.644-9.085-12.015-11.057-3.384-18.17 4.33-19.968 7.127-.813-6.301-6.141-11.19-12.655-11.203-7.087 0-12.841 5.728-12.855 12.828 0 7.086 5.742 12.841 12.842 12.841 3.45 0 6.567-1.372 8.871-3.583.08.066.107.186.067.426-.546 3.184-1.532 14.706 10.55 19.408 4.849 1.879 8.965.48 12.375-1.904 1.013-.72 1.186-.413 1.04.546-.44 2.97.12 9.311 9.017 12.921 6.767 2.757 10.777-.053 13.415-2.491 1.145-1.039 1.452-.866 1.518.746.32 8.579 7.447 15.399 16.105 15.412 8.925 0 16.158-7.206 16.158-16.118 0-8.925-7.22-16.065-16.145-16.158z" class="cls-2"/><path id="path5" d="M191.315 99.62C85.667 99.62.027 155.807.027 224.73c0 1.784-.027 6.7-.027 7.326 0 73.132 74.85 132.343 191.288 132.343s191.301-59.211 191.301-132.33v-7.34c0-68.922-85.64-125.11-191.274-125.11M373.97 210.862c-41.575 9.245-72.586 22.66-80.352 26.123-18.143-15.839-60.077-52.298-71.44-60.824-6.487-4.888-10.923-7.46-14.813-8.618-1.745-.533-4.156-1.132-7.26-1.132-2.89 0-5.994.519-9.231 1.558-7.34 2.331-14.653 8.14-21.726 13.76l-.36.294c-6.594 5.235-13.4 10.656-18.556 11.802-2.251.506-4.57.773-6.874.773-5.78 0-10.963-1.679-12.908-4.157-.32-.413-.106-1.079.64-2.024l.093-.134 15.972-17.197c12.508-12.508 24.31-24.31 51.498-24.937.453-.013.906-.026 1.36-.026 16.917.013 33.834 7.58 35.739 8.472 15.865 7.74 32.25 11.669 48.701 11.682 17.117 0 34.781-4.222 53.35-12.761 19.396 16.305 32.25 35.953 36.167 57.36zM191.34 107c56.081 0 106.248 16.079 139.99 41.388-16.305 7.06-31.85 10.617-46.85 10.617-15.346-.013-30.678-3.703-45.57-10.963-.787-.373-19.463-9.178-38.898-9.191-.506 0-1.026 0-1.532.013-22.832.533-35.7 8.645-44.345 15.745-8.406.213-15.665 2.238-22.126 4.036-5.768 1.599-10.737 2.984-15.585 2.984-1.999 0-5.595-.186-5.915-.2-5.568-.173-33.542-7.033-55.881-15.465 33.662-23.924 82.443-38.977 136.726-38.977zM47.995 150.972c23.325 9.537 51.632 16.917 60.584 17.49 2.49.16 5.155.453 7.819.453 5.941 0 11.869-1.665 17.597-3.264 3.383-.946 7.126-1.985 11.056-2.73-1.052 1.025-2.105 2.078-3.157 3.13l-16.211 17.543c-1.28 1.293-4.05 4.73-2.225 8.965.72 1.705 2.198 3.344 4.263 4.73 3.863 2.597 10.79 4.369 17.21 4.369 2.438 0 4.756-.24 6.86-.72 6.807-1.518 13.934-7.206 21.487-13.214 6.021-4.782 14.573-10.857 21.127-12.642 1.838-.492 4.076-.812 5.888-.812.546 0 1.052.026 1.518.093 4.316.546 8.5 2.012 15.972 7.62 13.321 10.004 72.226 61.542 72.799 62.048.04.027 3.796 3.277 3.53 8.659-.147 3.01-1.812 5.675-4.716 7.526-2.517 1.599-5.102 2.411-7.726 2.411-3.943 0-6.647-1.851-6.833-1.971-.214-.173-20.395-18.69-27.828-24.91-1.185-.986-2.331-1.865-3.49-1.865a1.94 1.94 0 0 0-1.545.732c-1.172 1.44.133 3.437 1.678 4.743l23.578 23.71s2.944 2.745 3.264 6.382c.186 3.93-1.692 7.22-5.595 9.777-2.784 1.838-5.595 2.757-8.352 2.757-3.623 0-6.168-1.651-6.727-2.038l-3.384-3.33c-6.18-6.087-12.561-12.375-17.237-16.265-1.145-.945-2.358-1.825-3.517-1.825-.572 0-1.092.214-1.491.64-.533.586-.906 1.652.426 3.423a10 10 0 0 0 1.185 1.332L243 283.248c.133.173 3.543 4.223.386 8.246l-.613.772c-.52.56-1.066 1.093-1.598 1.545-2.931 2.412-6.847 2.665-8.406 2.665-.84 0-1.625-.067-2.331-.2-1.692-.307-2.837-.773-3.397-1.426l-.213-.213c-.932-.972-9.604-9.83-16.784-15.812-.946-.799-2.132-1.785-3.344-1.785-.6 0-1.132.24-1.558.693-1.412 1.559.719 3.877 1.625 4.729l14.666 16.185c-.013.146-.2.48-.546.986-.533.732-2.305 2.504-7.633 3.17-.64.08-1.305.12-1.945.12-5.488 0-11.35-2.664-14.373-4.263a21.84 21.84 0 0 0 2.091-9.298c0-12.082-9.804-21.9-21.886-21.913-.253 0-.533 0-.786.014.387-5.515-.386-15.959-11.11-20.554-3.09-1.333-6.167-2.025-9.15-2.025-2.345 0-4.597.4-6.715 1.212-2.224-4.316-5.914-7.46-10.71-9.098-2.664-.92-5.301-1.386-7.859-1.386-4.462 0-8.579 1.32-12.242 3.917-3.517-4.37-8.818-6.954-14.4-6.954-4.888 0-9.59 1.958-13.067 5.409-4.57-3.49-22.686-15-71.187-26.016-2.318-.52-7.58-2.025-10.883-2.997 4.542-21.767 18.382-41.655 38.897-57.973Zm89.97 126.255-.52-.466h-.533c-.426 0-.88.173-1.479.6-2.477 1.744-4.835 2.583-7.246 2.583-1.332 0-2.69-.266-4.05-.786-11.242-4.382-10.363-14.986-9.804-18.183.08-.652-.08-1.145-.493-1.491l-.799-.653-.746.706a11.57 11.57 0 0 1-8.072 3.263c-6.434 0-11.683-5.235-11.67-11.682 0-6.434 5.249-11.67 11.696-11.656 5.821 0 10.777 4.37 11.51 10.19l.4 3.131 1.718-2.65c.186-.307 4.915-7.447 13.587-7.434 1.652 0 3.357.267 5.075.8 6.914 2.104 8.086 8.378 8.259 10.99.12 1.518 1.212 1.598 1.412 1.598.6 0 1.04-.373 1.345-.706a11.8 11.8 0 0 1 8.592-3.624c2.039 0 4.197.493 6.434 1.452 10.99 4.716 6.008 18.676 5.955 18.823-.946 2.318-.986 3.33-.093 3.93l.426.2h.32c.492 0 1.105-.214 2.13-.56 1.493-.52 3.744-1.292 5.862-1.292 8.272.093 15 6.833 15 14.999 0 8.259-6.741 14.973-15.013 14.973-8.086 0-14.667-6.301-14.96-14.307-.026-.693-.093-2.504-1.638-2.504-.626 0-1.186.386-1.812.959-1.785 1.652-4.05 3.317-7.353 3.317-1.505 0-3.13-.347-4.849-1.053-8.538-3.463-8.658-9.324-8.312-11.682.093-.626.12-1.279-.306-1.798zm53.376 65.112c-101.585 0-183.935-52.684-183.935-117.663 0-2.61.187-5.208.44-7.78.813.2 8.885 2.119 10.55 2.505 49.54 11.003 65.912 22.446 68.683 24.617a18.6 18.6 0 0 0-1.426 7.127c0 10.243 8.326 18.582 18.556 18.582 1.146 0 2.291-.106 3.41-.32 1.546 7.54 6.474 13.255 14 16.185 2.199.84 4.423 1.28 6.621 1.28 1.412 0 2.838-.174 4.223-.52 1.399 3.53 4.516 7.939 11.522 10.776 2.451.986 4.903 1.506 7.287 1.506 1.945 0 3.85-.347 5.661-1.013 3.357 8.166 11.336 13.588 20.235 13.588a21.9 21.9 0 0 0 15.692-6.648c3.53 1.972 10.99 5.529 18.53 5.542.972 0 1.877-.067 2.81-.173 7.486-.946 10.963-3.877 12.561-6.154.293-.4.547-.826.773-1.266 1.758.506 3.703.92 5.941.932 4.09 0 8.006-1.398 11.976-4.276 3.903-2.81 6.673-6.846 7.073-10.283 0-.04 0-.094.013-.147 1.32.267 2.665.4 4.01.4 4.21 0 8.352-1.306 12.308-3.903 7.633-4.996 8.952-11.536 8.832-15.812 1.346.28 2.704.426 4.063.426 3.943 0 7.833-1.185 11.523-3.543 4.729-3.024 7.58-7.66 8.019-13.041.28-3.664-.626-7.367-2.545-10.537 12.762-5.502 41.935-16.145 76.29-23.884a78 78 0 0 1 .226 5.874c0 64.98-82.35 117.663-183.922 117.663z" class="cls-1"/><g id="g12" transform="matrix(1.33209 0 0 1.33209 -174.144 -51.186)"><path id="path6" d="M910.26 142.12c-5.21-6.54-13.13-9.8-23.75-9.8s-18.53 3.27-23.74 9.8q-7.83 9.795-7.83 23.16c0 8.91 2.61 16.81 7.83 23.26 5.21 6.43 13.13 9.65 23.74 9.65s18.54-3.22 23.75-9.65c5.22-6.45 7.82-14.19 7.82-23.26s-2.6-16.63-7.82-23.16m-12.92 37.48c-2.53 3.35-6.15 5.04-10.89 5.04s-8.36-1.69-10.91-5.04-3.82-8.13-3.82-14.32 1.27-10.95 3.82-14.29 6.19-5.01 10.91-5.01q7.08 0 10.89 5.01c2.53 3.34 3.8 8.11 3.8 14.29s-1.27 10.97-3.8 14.32" class="cls-1"/><path id="path7" d="M776.98 136.65c-5.29-2.68-11.34-4.03-18.15-4.03-10.47 0-17.86 2.73-22.17 8.18-2.71 3.49-4.22 7.95-4.58 13.37h15.65c.38-2.4 1.15-4.29 2.31-5.69 1.61-1.89 4.36-2.84 8.23-2.84 3.46 0 6.08.48 7.88 1.45 1.78.96 2.68 2.72 2.68 5.26 0 2.09-1.16 3.61-3.49 4.61-1.3.57-3.46 1.04-6.48 1.42l-5.55.68c-6.3.8-11.08 2.13-14.32 3.99-5.92 3.41-8.88 8.93-8.88 16.55 0 5.87 1.83 10.41 5.52 13.61 3.67 3.21 8.34 4.55 13.98 4.81 35.37 1.59 34.98-18.64 35.3-22.84v-23.27c0-7.47-2.65-12.55-7.93-15.25zm-8.22 35.32c-.11 5.42-1.66 9.15-4.64 11.2-2.99 2.05-6.24 3.07-9.78 3.07-2.24 0-4.14-.63-5.7-1.85-1.56-1.23-2.34-3.24-2.34-6.01 0-3.1 1.28-5.39 3.83-6.88 1.51-.87 3.99-1.61 7.45-2.2l3.69-.69c1.84-.35 3.28-.73 4.34-1.13 1.07-.38 2.1-.9 3.13-1.55v6.03z" class="cls-1"/><path id="path8" d="M696.32 146.48c4.05 0 7.01 1.25 8.94 3.75 1.31 1.84 2.13 3.93 2.45 6.24h17.45c-.95-8.81-4.03-14.95-9.24-18.43-5.22-3.47-11.9-5.21-20.07-5.21-9.61 0-17.15 2.95-22.61 8.84-5.46 5.9-8.2 14.15-8.2 24.75 0 9.38 2.47 17.04 7.42 22.93s12.66 8.84 23.14 8.84 18.42-3.53 23.76-10.61c3.35-4.38 5.23-9.03 5.62-13.94h-17.39c-.36 3.25-1.37 5.9-3.06 7.94-1.67 2.03-4.5 3.06-8.5 3.06-5.63 0-9.47-2.57-11.5-7.72-1.12-2.75-1.69-6.38-1.69-10.91s.57-8.54 1.69-11.43c2.12-5.39 6.05-8.1 11.79-8.1" class="cls-1"/><path id="path9" d="M660.36 132.83c-35.85 0-33.72 31.73-33.72 31.73v32.24h16.27v-30.23c0-4.96.63-8.62 1.86-11.01 2.23-4.23 6.6-6.35 13.1-6.35.49 0 1.13.03 1.92.07s1.69.11 2.73.23v-16.55c-.72-.05-1.19-.07-1.39-.1-.21-.02-.46-.03-.77-.03" class="cls-1"/><path id="path10" d="M613.6 144.85c-2.81-4.16-6.38-7.21-10.68-9.15q-6.465-2.88-14.52-2.88c-9.06 0-16.42 2.85-22.1 8.56-5.67 5.72-8.52 13.92-8.52 24.63 0 11.43 3.15 19.67 9.44 24.74 6.28 5.06 13.54 7.61 21.76 7.61 9.96 0 17.71-3.01 23.24-9.02 2.99-3.16 4.86-6.29 5.65-9.38h-17.26c-.68.98-1.41 1.81-2.22 2.46-2.3 1.89-5.42 2.47-9.09 2.47-3.47 0-6.2-.52-8.66-2.07-4.06-2.5-6.35-6.72-6.59-12.91h45.01c.06-5.34-.11-9.43-.54-12.27-.74-4.84-2.4-9.1-4.92-12.77zm-39.15 14.38c.58-4.02 2.03-7.2 4.3-9.56 2.29-2.35 5.5-3.53 9.65-3.53 3.81 0 7.01 1.11 9.59 3.34 2.57 2.22 4 5.48 4.3 9.75h-27.83z" class="cls-1"/><path id="path11" d="M525.46 132.61c-7.55 0-14.08 3.31-18.47 8.61-4.17-5.3-10.59-8.61-18.48-8.61-15.89 0-26.13 11.67-26.13 27.12v37.06h14.87v-37.41c0-6.83 4.62-11.55 11.27-11.55 9.8 0 10.81 8.13 10.81 11.55v37.41h14.87v-37.41c0-6.83 4.73-11.55 11.26-11.55 9.8 0 10.93 8.13 10.93 11.55v37.41h14.85v-37.06c0-15.93-9.56-27.12-25.79-27.12z" class="cls-1"/><path id="path12" d="m833.71 124.7-.02 17.43c-1.81-2.92-4.17-5.2-7.08-6.83-2.9-1.64-6.23-2.47-9.98-2.47-8.13 0-14.6 3.03-19.46 9.06-4.86 6.05-7.29 14.77-7.29 25.31 0 9.15 2.47 16.65 7.4 22.49 4.93 5.83 14.6 8.39 23.19 8.39 29.95 0 29.6-25.68 29.6-25.68v-59.11s-16.37-1.75-16.37 11.41zm-3.13 55.04c-2.37 3.4-5.86 5.1-10.43 5.1s-7.98-1.72-10.23-5.13c-2.25-3.43-3.37-8.41-3.37-14.11 0-5.3 1.1-9.72 3.31-13.29s5.67-5.36 10.4-5.36c3.1 0 5.82.98 8.17 2.94 3.81 3.25 5.73 9.09 5.73 16.64 0 5.4-1.2 9.81-3.58 13.21" class="cls-1"/></g><path id="path13" d="M487.571 244.085c-17.85-.84-26.855 3.41-32.73 7.899-8.112 6.194-13.054 15.359-13.054 29.999v75.276h10.497c2.81 0 5.621-.973 7.686-2.877 2.318-2.132 3.477-4.743 3.477-7.806v-28.134c2.558 4.409 5.928 7.646 10.19 9.75 4.037 1.879 8.699 2.825 14 2.825 9.978 0 18.17-3.97 24.524-11.95 6.368-8.191 9.551-18.848 9.551-32.05 0-13.2-3.01-22.605-10.23-31.396-5.834-7.114-14.706-11.123-23.898-11.536zm7.393 61.782c-3.184 4.41-7.54 6.607-13.054 6.607-5.941 0-10.51-2.185-13.694-6.607-3.184-3.983-4.782-9.924-4.782-17.917 0-8.565 1.478-14.866 4.449-18.849 3.197-4.382 7.66-6.607 13.387-6.607s10.51 2.211 13.694 6.607c3.197 4.41 4.782 10.684 4.782 18.85 0 7.566-1.585 13.507-4.782 17.916" class="cls-1"/><path id="path14" d="M673.69 251.85c-7.366-5.58-14.892-8.498-27.827-8.152-13.134.36-22.685 4.037-28.626 12.082-5.942 8.06-8.899 18.583-8.899 31.544 0 11.097 2.238 20.035 6.714 26.868 4.49 6.794 9.857 11.456 16.118 13.947 6.234 2.518 12.548 3.038 18.916 1.586 6.354-1.479 11.416-5.116 15.172-10.977v5.315c-.426 6.7-2.038 11.723-4.835 15.08-2.837 3.33-5.955 5.381-9.405 6.114-3.41.72-6.873.32-10.297-1.266-3.45-1.558-5.994-3.823-7.66-6.74H610.23c5.914 17.77 16.531 25.616 35.66 27.001 30.851 2.225 40.682-23.897 40.655-37.99v-44.293c0-14.64-4.769-24.017-12.828-30.145zm-9.071 43.507c-.84 4.902-2.185 8.525-4.076 10.816-3.957 5.435-10.124 7.367-18.436 5.821-8.353-1.585-12.522-9.59-12.522-24.017 0-6.7 1.239-12.668 3.757-17.917 2.504-5.208 7.286-7.846 14.373-7.846 5.208 0 9.178 1.892 11.882 5.648 2.717 3.77 4.45 8.06 5.168 12.882.733 4.809.667 9.684-.16 14.6z" class="cls-1"/><path id="path15" d="M589.796 249.653c-7.047-3.557-15.106-5.369-24.178-5.369-13.947 0-23.778 3.637-29.506 10.91-3.596 4.636-5.621 10.577-6.1 17.797h20.847c.506-3.184 1.531-5.715 3.063-7.566 2.145-2.518 5.808-3.797 10.963-3.797 4.623 0 8.113.64 10.497 1.932 2.371 1.279 3.557 3.623 3.557 7.007 0 2.77-1.545 4.822-4.649 6.127-1.732.76-4.609 1.386-8.632 1.892l-7.38.892c-8.392 1.066-14.773 2.838-19.062 5.315-7.9 4.543-11.829 11.882-11.829 22.033 0 7.82 2.438 13.867 7.353 18.13 4.89 4.276 11.11 6.06 18.636 6.407 47.103 2.105 46.57-24.83 46.996-30.425V269.94c0-9.937-3.503-16.704-10.55-20.3zm-10.95 47.036c-.133 7.233-2.211 12.188-6.168 14.92-3.97 2.73-8.312 4.089-13.028 4.089-2.983 0-5.501-.84-7.593-2.465q-3.117-2.457-3.117-7.992c0-4.13 1.705-7.18 5.102-9.152 2.025-1.159 5.315-2.144 9.924-2.93l4.93-.906c2.45-.466 4.382-.96 5.767-1.492a22 22 0 0 0 4.183-2.078v8.032z" class="cls-1"/><path id="path16" d="M768.455 256.486q-10.43-13.067-31.65-13.067c-14.147 0-24.67 4.342-31.61 13.067-6.954 8.699-10.43 18.97-10.43 30.838 0 11.87 3.476 22.38 10.43 30.971 6.94 8.552 17.49 12.842 31.61 12.842s24.683-4.29 31.65-12.842c6.94-8.592 10.404-18.902 10.404-30.97 0-12.07-3.464-22.14-10.404-30.839m-17.224 49.9c-3.37 4.476-8.192 6.727-14.48 6.727-6.287 0-11.136-2.25-14.533-6.727-3.41-4.462-5.101-10.816-5.101-19.062 0-8.245 1.691-14.586 5.101-19.035 3.384-4.45 8.233-6.674 14.534-6.674 6.3 0 11.122 2.224 14.48 6.674 3.37 4.449 5.048 10.79 5.048 19.035s-1.678 14.6-5.049 19.062" class="cls-1"/></svg>